# xmcd
#
# Track frame offsets:
#	150
#	14007
#	24535
#	39182
#	54502
#	66052
#	76980
#	89917
#	107225
#	124660
#	135975
#	148120
#	158300
#	167885
#
# Disc length: 2469 seconds
#
# Revision: 1
# Processed by: cddbd v1.5PL3 Copyright (c) Steve Scherf et al.
# Submitted via: audiograbber 1.82.01
#
DISCID=b509a30e
DTITLE=Anna-Lena Brundin - Se ut som du gör
DYEAR=1998
DGENRE=Country
TTITLE0=Min kväll i kväll (Girl's night out)
TTITLE1=Du är inte kvinna nog att ta min man (You ain't woman enough) 
TTITLE2=Hem and skola VVB (Harper Valley PTA) 
TTITLE3=Det har alltid varit du (Always on my mind)
TTITLE4=Efter midnatt (Walkin' after midnight)
TTITLE5=Varför komma här och se ut som du gör? (Why'd you come in here lookin' 
TTITLE5=like that?)
TTITLE6=Jag bäddar din säng (I'll make your bed) 
TTITLE7=Vi ger dem nånting att snacka om (Something to talk about)
TTITLE8=När du än vill (Any old time)
TTITLE9=Ring av lågor (Ring of fire)
TTITLE10=Jag behöver dig
TTITLE11=Jag brukade få blommor (On the inside)
TTITLE12=Ett ruttet lingon (Two whoops and a holler)
TTITLE13=Dags för mig att gå (Time for me to fly)
EXTD=
EXTT0=
EXTT1=
EXTT2=
EXTT3=
EXTT4=
EXTT5=
EXTT6=
EXTT7=
EXTT8=
EXTT9=
EXTT10=
EXTT11=
EXTT12=
EXTT13=
PLAYORDER=
